<svg id="Graphic_Elements" data-name="Graphic Elements" xmlns="http://www.w3.org/2000/svg" viewBox="0 0 1200 1200">
    <metadata><?xpacket begin="﻿" id="W5M0MpCehiHzreSzNTczkc9d"?>
        <x:xmpmeta xmlns:x="adobe:ns:meta/" x:xmptk="Adobe XMP Core 6.0-c002 79.164488, 2020/07/10-22:06:53        ">
            <rdf:RDF xmlns:rdf="http://www.w3.org/1999/02/22-rdf-syntax-ns#">
                <rdf:Description rdf:about=""
                                 xmlns:xmp="http://ns.adobe.com/xap/1.0/"
                                 xmlns:xmpMM="http://ns.adobe.com/xap/1.0/mm/"
                                 xmlns:stEvt="http://ns.adobe.com/xap/1.0/sType/ResourceEvent#">
                    <xmp:Label>Approved</xmp:Label>
                    <xmp:MetadataDate>2022-05-12T14:50:40+07:00</xmp:MetadataDate>
                    <xmpMM:InstanceID>xmp.iid:8dbbd8c5-f68d-41d7-8f5d-2de6682bffb6</xmpMM:InstanceID>
                    <xmpMM:DocumentID>xmp.did:8dbbd8c5-f68d-41d7-8f5d-2de6682bffb6</xmpMM:DocumentID>
                    <xmpMM:OriginalDocumentID>xmp.did:8dbbd8c5-f68d-41d7-8f5d-2de6682bffb6</xmpMM:OriginalDocumentID>
                    <xmpMM:History>
                        <rdf:Seq>
                            <rdf:li>
                                <rdf:Description>
                                    <stEvt:action>saved</stEvt:action>
                                    <stEvt:instanceID>xmp.iid:8dbbd8c5-f68d-41d7-8f5d-2de6682bffb6</stEvt:instanceID>
                                    <stEvt:when>2022-05-12T14:50:40+07:00</stEvt:when>
                                    <stEvt:softwareAgent>Adobe Bridge 2021 (Macintosh)</stEvt:softwareAgent>
                                    <stEvt:changed>/metadata</stEvt:changed>
                                </rdf:Description>
                            </rdf:li>
                        </rdf:Seq>
                    </xmpMM:History>
                </rdf:Description>
            </rdf:RDF>
        </x:xmpmeta>


        <?xpacket end="w"?>
    </metadata>
    <defs>
        <style>
            .cls-1{fill:#ea5b27;}.cls-2{fill:#642a3e;fill-opacity:0.95;}.cls-3{fill:#fdfcfc;}.cls-4{fill:#f29a84;}.cls-5{fill:#090707;}.cls-6{fill:#fcca8d;}
        </style>
    </defs>
    <g id="Graphic_Elements-2" data-name="Graphic Elements">
        <path id="path4184" class="cls-1"
              d="M1128.88,301q-3.24-6.42-7.12-12.61c-23.73-39.1-69.75-55-113.49-56.21-76.34-1-156.69,12.69-219.56,58.46-40.25,30.12-54.51,87-40.3,134.12,3.11,20.82,14.45,42.85,3.6,63.39-13.29,17.85-36,22.75-55.61,30.65-81.49,38.83-160.56,83.26-230.12,141C435.55,681,396.3,673.47,361.14,676c-104.69-7.4-213.5-33.4-296.17-101-7.22-6.53-15.75,3.67-14.91,11.31C57,623.18,84.25,651,110.73,675.47c34.05,31.11,77.78,48,119.71,65.44,73.54,31.65,155.75,38.16,227.7,73.84,32.37,23.7,67.91,43,106.13,55.56,5,23.75,3.62,48.08,3.25,72.18-.48,7.32,3.53,15.16,11.46,16.18,26.56,8,56.4,14.23,83.06,3.25a8,8,0,0,0,6.48-10.77c-7.46-22.92-12.91-49.37-1.5-72,1.34-3.87,7.89-6.19,9.82-1.72,6.79,20.69,5.82,43.2,8.37,64.4,24.78,12.42,55.75,11.3,82.07,3.86,16.18-6.85-.27-23.66-.77-34.86-4.41-27.64,23.7-43.35,39.17-61.35,34.8-26.58,48.78-77.31,33.56-117.65,27.37,7.67,56.19,17.6,85,11.75,2.31,7.47,2.29,17.38,11,20.74,10.79.53,7.81-15,10.61-21.57,10.82,1.31,21.48,4.33,32.31,5.33,10.53-5.12,2.07-19.89-7-21.38-2.57-8.41,16-1.77,16.55-11.13,2.76-11.9-14.68-9.75-21.09-12.9-.1-5.19,5.85-13-1-16.8-15.48-5-27.16,10.33-37.21,19.4C902.9,703.83,879.89,690,860,674.9c-2.33-1.72-2.29-5.54,1-6,45.1,4.31,92.75-.75,132.55-23.66,9.28-2.11,10.21,16.72,20,14.88,9.57-3.22,5.93-14.84,7.3-22.18,9.86-7.76,24.73-6,34.33-13,5.78-12.29-13-12.6-20.62-13.57,3.62-7.14,16.32-12.92,12.11-22.23-9-4.79-19,.18-26.89,4.87-3.12-7,7.69-16.41-1-21.72-20.21.64-23.89,24.64-31.94,38.44-32.16,7.47-66.29,3.71-98.06-4.12-5.24-2.91-18.46-2.56-15.66-11.54,7.51-30.53,27.43-64.31,61.35-69.38,28.3-5.63,57.3-7.61,86.23-8.18,36.47-1.38,73.72-20.09,89.63-54,19.72,10,20.85-24.71,39-27,2.12-45.59.5-94.16-20.42-135.58Z"/>
        <path id="path6" class="cls-2"
              d="M1128.88,301q-3.24-6.42-7.12-12.61c-23.73-39.1-69.75-55-113.49-56.21-76.34-1-156.69,12.69-219.56,58.46-40.25,30.12-54.51,87-40.3,134.12,3.11,20.83,14.45,42.85,3.61,63.4-13.3,17.84-36,22.74-55.61,30.64-81.49,38.84-160.57,83.26-230.13,141C435.55,681,396.3,673.47,361.14,676c-104.69-7.4-213.5-33.4-296.17-101-7.22-6.53-15.74,3.67-14.91,11.31C57,623.18,84.25,651,110.73,675.48c34.05,31.11,77.78,48,119.71,65.44,73.54,31.65,155.75,38.17,227.7,73.84,32.38,23.7,67.91,43,106.13,55.55,5,23.75,3.62,48.08,3.26,72.18-.49,7.33,3.52,15.17,11.45,16.18,26.57,8,56.41,14.23,83.06,3.25a8,8,0,0,0,6.48-10.77c-7.46-22.92-12.91-49.37-1.5-72,1.34-3.87,7.89-6.19,9.82-1.72,6.79,20.7,5.82,43.21,8.37,64.4,24.78,12.42,55.75,11.3,82.07,3.86,16.18-6.84-.27-23.65-.77-34.86-4.41-27.64,23.7-43.35,39.17-61.35,34.8-26.57,48.78-77.31,33.56-117.65,27.37,7.67,56.2,17.61,85,11.76,2.31,7.46,2.3,17.38,11,20.73,10.79.54,7.81-15,10.61-21.56,10.82,1.31,21.48,4.32,32.31,5.32,10.53-5.12,2.07-19.88-7-21.37-2.57-8.42,16-1.78,16.55-11.13,2.76-11.91-14.68-9.76-21.09-12.9-.1-5.2,5.85-13-1-16.81-15.48-5-27.16,10.33-37.21,19.41C902.9,703.83,879.89,690,860,674.91c-2.34-1.73-2.3-5.54,1-6,45.1,4.3,92.75-.76,132.56-23.66,9.27-2.11,10.21,16.72,20,14.87,9.58-3.22,5.93-14.84,7.3-22.17,9.87-7.77,24.73-6,34.33-13,5.78-12.3-13-12.6-20.62-13.57,3.63-7.15,16.32-12.93,12.11-22.23-9-4.8-19,.17-26.89,4.86-3.11-7,7.69-16.4-1-21.72-20.21.65-23.89,24.65-31.93,38.45-32.16,7.46-66.3,3.7-98.07-4.13-5.24-2.9-18.46-2.55-15.66-11.54,7.51-30.52,27.43-64.31,61.35-69.38,28.3-5.62,57.3-7.6,86.23-8.17,36.47-1.39,73.72-20.1,89.63-54,19.72,10,20.85-24.68,39-26.94,2.13-45.6.5-94.17-20.41-135.59Zm-6.17,5.3c16.07,32.41,17.51,71.38,19.44,107.15-.84,6.07,3,17-5.84,18.42-57,1-113.2,11.41-168.86,22.8-41.89,7.08-90.28,1.5-119.87-32-11.2-7.89,12.79-12.18,3.93-19.18-15.84,0-27,22.25-16.91,35.08,7-.17-.09-13.85,6.87-12.21,14.61,10.74,2.46,34,14.27,46.44,10.83.05,19.81-8.33,30.44-9.6,6.84,5.79,4,20.34,13.61,23.44,10.57-2,16-13.85,26-17.38,7.09,5.2,11.06,15.82,20.31,17.27,9.21-4,12.44-15.27,20.67-20.08,7.52,4.82,12.7,14.27,22.23,15.37,9.91-2,13.31-12.28,20.42-17.78,8.59,1.23,14.9,13.27,24.65,10.4,7.16-4.23,10.46-13.66,17.23-17.92,8.34,3.52,15,10.9,22.86,15.59,8.31-.63,11.55-10.73,16.92-16.05,3.05-5.69,12.71.25,8.89,5.6-9.58,17.85-26.18,31.33-44.69,39.25-36.58,11.21-75.14,8.74-112.78,13.34-25.82,4.2-49.46,19.2-63.25,41.64-14.65,34.16-19.75,72.82-29.24,107.91-14.39-10.95-24.07-28.57-34.87-43.51-5.55-4.67-9-32.38-16.46-26.16,14,61.36,70.82,116.38,135.77,118.34,6-8,13.41-15.37,23.09-19,4.56,4.5-5.41,9.8-3,15.6,3.81,7.67,17.83-1.24,20.39,6.18-5,3-11.53,4.44-15,9.54.11,8.83,14.08,6.92,13.9,15.26-11.58,1.09-35.28-11.22-36.53,8.51-3.78,12.24-6.61-8.85-8.67-12.13-70,5.05-144.42-27.1-182.54-87.48-.84-2.84-6.9-3.8-5.17.15,9.15,21.21,25.5,38.63,43.26,53C797.92,713.64,815.11,720,830,728.91c-8.1,28.79-25.67,55.91-46.46,77.26-11.28,18.52-34.23,24.41-49.51,38.64-16.33,10.43-35.24,14.78-52.83,22.36-2.33,1.26-3.39-2.56-1.15-3.27,11-12.12,25.72-20.15,36.12-32.95,4.2-13.6,19.28-20.39,23.33-34.17,5.78-11.17,3.89-24.39,6.78-36.13-.84-29.9-16.36-61.1-43.21-75.08-12.41.06-.84,13.3,4.82,16.44,29.57,20.93,33.66,61.62,20,92.62-12.55,22.83-32.26,40.82-52.62,56.6-11.62,11.8-25.46,24.88-25,42.84-3,20.57,7.06,40.32,8.58,60.12-25.91,3.59-53.6,4.92-77.75-6.92-6.4-2.52-2.82-10.95-3.34-16,1.41-44.86-3.75-91.83-25.65-131.61-2.39-4.05-10.4-10.62-11.74-2.49,7,18.59,17,36.47,19.29,56.54,0,3.93-5.26,2.62-7.64,1.68-19.37-10.43-40.85-17-59.42-28.75C445.79,789,384.82,779.42,328.68,763.26c-36.91-6.26-71.54-21-106.11-34.64-31.35-14.89-64-28.14-91.75-49.58-28.49-24.32-58.67-50.91-70.4-87.73-1.23-2.42-1.34-8.9,2.85-6.29,80.89,61,180.58,94.18,281.55,99,30,1.52,61,4.25,90.44-3.49,21.87,4.84,39.49-20.44,58.39-31.18,50.26-40.16,107.15-70.47,163-101.59,31.16-19,68.31-25.66,97.75-47.57,15.49-15.23,11.47-38.28,5.81-56.94C747.6,398.8,747.38,345.16,780,309.1c29.57-28,67.86-44.39,106.66-54.92,53.7-10.32,110.07-21.69,164-6.24,21.63,3.18,40.08,17.43,54.67,33a110.42,110.42,0,0,1,17.26,25.48Zm8.5,132.94c-1.33,5.28-10.29,19.51-19.11,16.09-4.37-4.46-11.1-7.49-14-12.65,10-4.64,22.41-1.17,33.14-3.44Zm-46.08,5c4,7-8.88,11.69-13.26,15-4.12-4.39-10.78-6.25-12.8-12.48,7.81-4.07,17.06-4.27,25.63-3.18.16.23.31.46.44.68Zm-43.37,4.9c-.82,6.4-8.4,11.19-11.52,16.79A54.15,54.15,0,0,1,1015,453.71c8.4-3.17,17.94-3,26.77-4.52Zm-39.59,6.29c2,7-10.07,11.54-13.49,17.65-4.85-4.12-12.82-5.87-16.42-12.17,10.11-1.21,19.53-6.81,29.91-5.48ZM1040,593.12c-.19,8.42-11,11.92-13.12,20,3,9.6,17.42,1,20.63,9.11-10.06,4.58-22.47,3.5-30.73,11.93-6.68,2.75-.42,12.12-6.12,15.78-6-3.06-5.24-15.69-13.94-12.91A223,223,0,0,1,862.84,660.7c-2.6-16.94,2.24-36.23,9.1-52.3,37.58,16,81.09,18.69,120.4,8.68,4.19-12.8,8.52-28.28,20.35-36.56,7.36,3.74-6.29,16.16.23,21.67,9.54-.92,17.39-8.28,27-9.06ZM956.27,462.93c.91,4.74-6.08,12.3-10.84,15-5.51-2.89-9.63-8.43-13.55-13.27,7.9-2,16.32-2,24.39-1.71Zm-40.88.18c2.31,5.93-10.21,10.08-13.82,15.14-3.74-2.44-4.48-11.32-7.39-16.15,6.41-3.08,14.23.87,21.21,1Zm-39.58-9.92c3.16,6.39-22.79,19.26-19.32,2.66,3.83-3.26-2.31-14.77,5.46-11.82,4.67,5.81,7.92,5.15,13.47,8.56a3.07,3.07,0,0,1,.39.6Zm-41.38,294.6c6.88,19.72-2.23,40.24-8.23,59.13-11.45,27.36-36.1,45.44-55.42,66.78-14.52,14.88-13.53,37.9-7.31,56.25a7.11,7.11,0,0,1-7.72,9.74c-20,3.3-44,5.72-61.5-4.59.83-20.74-7.21-40.64-8-61.07,42.57-14.07,84.35-36.09,112.6-72,14.83-16,25-36.17,35.63-54.26Z"/>
        <path id="path10" class="cls-3"
              d="M1131.21,439.27c-10.73,2.27-23.12-1.2-33.14,3.44,2.93,5.16,9.66,8.18,14,12.65,8.82,3.42,17.78-10.81,19.11-16.09Zm-46.08,5a6.51,6.51,0,0,0-.44-.68c-8.56-1.1-17.81-.89-25.62,3.18,2,6.23,8.68,8.09,12.79,12.47,4.39-3.28,17.26-8,13.27-15Zm-43.37,4.9c-8.83,1.53-18.37,1.34-26.78,4.51A54.55,54.55,0,0,0,1030.24,466c3.11-5.6,10.7-10.4,11.52-16.79Zm-39.6,6.29c-10.37-1.33-19.79,4.27-29.9,5.48,3.6,6.29,11.57,8,16.42,12.16,3.41-6.1,15.46-10.6,13.48-17.64Zm-45.88,7.45c-8.08-.31-16.5-.32-24.4,1.71,3.92,4.84,8,10.38,13.55,13.27,4.76-2.67,11.75-10.23,10.85-15Zm-40.89.19c-7-.14-14.8-4.09-21.21-1,2.91,4.82,3.65,13.71,7.39,16.14,3.61-5.06,16.14-9.21,13.82-15.13Zm-39.57-9.93a3.61,3.61,0,0,0-.4-.59c-5.55-3.42-8.8-2.76-13.47-8.57-7.77-2.95-1.62,8.56-5.45,11.82-3.48,16.61,22.47,3.74,19.32-2.66Z"/>
        <path id="path16" class="cls-4"
              d="M949,298.1c12.78,15.4,5,41.32-14,47.22-19.79,7.19-44.47-11.18-40-32.84,1.22-26.11,39.81-35.66,53.94-14.38m-11.84,11.8c-8.06-9.84-28.53-7.22-24.57,9C916.21,335.94,944.85,325.33,937.14,309.9Z"/>
        <path id="path18" class="cls-5"
              d="M937.14,309.9c7.71,15.43-20.93,26-24.57,9C908.61,302.68,929.08,300.06,937.14,309.9Z"/>
        <path id="path30" class="cls-6"
              d="M879.28,555.89c-13.32-6.93-29.85,6.44-38.13,16.53-11,14.43-22.07,29.82-26,47.88,10.8,14.94,20.47,32.56,34.87,43.51,9.48-35.09,14.59-73.75,29.24-107.92ZM830,728.91c-14.87-8.92-32.07-15.27-45.72-26.78-11.81,19.55-22.11,41.24-38,58.52-2.89,11.74-1,25-6.78,36.13-4.05,13.78-19.13,20.56-23.34,34.17C705.74,843.75,691,851.78,680,863.9c-2.24.71-1.17,4.52,1.16,3.27,17.59-7.58,36.5-11.93,52.82-22.36,15.28-14.24,38.24-20.12,49.52-38.64,20.79-21.35,38.35-48.47,46.46-77.26ZM728.35,548.23a22.78,22.78,0,0,0-2.76-4c-10.24-13.71-34.72-12.13-42,3.88-11.43,17.87,9.21,43.1,28.92,35.66,15.64-3.38,23.15-22.09,15.81-35.55ZM710,612.59a19.06,19.06,0,0,0-1.48-2.48c-11.66-20-42.74,4.21-27.39,20.72,12.66,16,37.23-1.4,28.87-18.24Zm-45.69-33.5a23.34,23.34,0,0,0-2.84-4.39c-10.4-10.81-29.84-11.18-38.77,1.69-14.85,15.26,1.52,44.18,22.36,40.56,18.2-1.61,26.72-23,19.25-37.86ZM655,643.37a9.06,9.06,0,0,0-2.66-3.36c-8.22-7.42-23.25,5.51-14,14.12,7,7.81,20.26-2.49,16.65-10.76Zm-43.9-9a40.09,40.09,0,0,0-5.6-8.29c-15.27-16.55-45.42-17.62-61.87-1.06-24.17,23.89-3.82,72.14,31.52,71.73,9.45-3.5,20-5.5,27.37-12.87,15.34-11.08,16.89-33.29,8.58-49.51Zm-88.91,30.38a13.72,13.72,0,0,0-2.45-3.23c-8.94-9-28.25,1.13-21,13.4,5.75,17,30.29,2.73,23.44-10.17Z"/>
    </g>
</svg>